<svg width="20" height="20" viewBox="0 0 20 20" fill="none" xmlns="http://www.w3.org/2000/svg">
<mask id="mask0_6_619" style="mask-type:alpha" maskUnits="userSpaceOnUse" x="0" y="0" width="20" height="20">
<rect width="20" height="20" fill="#D9D9D9"/>
</mask>
<g mask="url(#mask0_6_619)">
<path d="M9.98396 17.5834C8.94938 17.5834 7.97216 17.3841 7.0523 16.9855C6.1323 16.5869 5.32903 16.0442 4.64251 15.3576C3.95584 14.6711 3.4132 13.8665 3.01459 12.9438C2.61598 12.0212 2.41667 11.0399 2.41667 10.0001C2.41667 8.94244 2.61646 7.95633 3.01605 7.04175C3.41563 6.12716 3.96827 5.32404 4.67396 4.63237C5.37952 3.94057 6.20619 3.39835 7.15396 3.00571C8.1016 2.61307 9.11292 2.41675 10.1879 2.41675C11.1933 2.41675 12.1463 2.59092 13.0467 2.93925C13.9472 3.28758 14.7329 3.76543 15.4038 4.37279C16.0747 4.98015 16.6057 5.69196 16.9967 6.50821C17.3878 7.32432 17.5833 8.203 17.5833 9.14425C17.5833 10.3227 17.1749 11.3572 16.3581 12.2476C15.5412 13.1381 14.4913 13.5834 13.2083 13.5834H11.8288C11.6021 13.5834 11.4004 13.6608 11.2235 13.8157C11.0467 13.9707 10.9583 14.1656 10.9583 14.4003C10.9583 14.704 11.0625 14.908 11.2708 15.0122C11.4792 15.1163 11.5833 15.4456 11.5833 16.0001C11.5833 16.3697 11.4346 16.726 11.1371 17.069C10.8394 17.412 10.4551 17.5834 9.98396 17.5834ZM5.50001 10.5417C5.78306 10.5417 6.02744 10.4389 6.23313 10.2332C6.43882 10.0275 6.54167 9.78314 6.54167 9.50008C6.54167 9.21703 6.43882 8.97265 6.23313 8.76696C6.02744 8.56126 5.78306 8.45842 5.50001 8.45842C5.21695 8.45842 4.97257 8.56126 4.76688 8.76696C4.56119 8.97265 4.45834 9.21703 4.45834 9.50008C4.45834 9.78314 4.56119 10.0275 4.76688 10.2332C4.97257 10.4389 5.21695 10.5417 5.50001 10.5417ZM8.00001 7.54175C8.28306 7.54175 8.52744 7.4389 8.73313 7.23321C8.93882 7.02751 9.04167 6.78314 9.04167 6.50008C9.04167 6.21703 8.93882 5.97265 8.73313 5.76696C8.52744 5.56126 8.28306 5.45841 8.00001 5.45841C7.71695 5.45841 7.47257 5.56126 7.26688 5.76696C7.06119 5.97265 6.95834 6.21703 6.95834 6.50008C6.95834 6.78314 7.06119 7.02751 7.26688 7.23321C7.47257 7.4389 7.71695 7.54175 8.00001 7.54175ZM12 7.54175C12.2831 7.54175 12.5274 7.4389 12.7331 7.23321C12.9388 7.02751 13.0417 6.78314 13.0417 6.50008C13.0417 6.21703 12.9388 5.97265 12.7331 5.76696C12.5274 5.56126 12.2831 5.45841 12 5.45841C11.717 5.45841 11.4726 5.56126 11.2669 5.76696C11.0612 5.97265 10.9583 6.21703 10.9583 6.50008C10.9583 6.78314 11.0612 7.02751 11.2669 7.23321C11.4726 7.4389 11.717 7.54175 12 7.54175ZM14.5 10.5417C14.7831 10.5417 15.0274 10.4389 15.2331 10.2332C15.4388 10.0275 15.5417 9.78314 15.5417 9.50008C15.5417 9.21703 15.4388 8.97265 15.2331 8.76696C15.0274 8.56126 14.7831 8.45842 14.5 8.45842C14.217 8.45842 13.9726 8.56126 13.7669 8.76696C13.5612 8.97265 13.4583 9.21703 13.4583 9.50008C13.4583 9.78314 13.5612 10.0275 13.7669 10.2332C13.9726 10.4389 14.217 10.5417 14.5 10.5417Z" fill="white"/>
</g>
</svg>
