<svg width="20" height="20" viewBox="0 0 20 20" fill="none" xmlns="http://www.w3.org/2000/svg">
<mask id="mask0_6_655" style="mask-type:alpha" maskUnits="userSpaceOnUse" x="0" y="0" width="20" height="20">
<rect width="20" height="20" fill="#D9D9D9"/>
</mask>
<g mask="url(#mask0_6_655)">
<path d="M10 9.74357C9.27889 9.74357 8.66806 9.49329 8.16751 8.99274C7.66695 8.49232 7.41667 7.88149 7.41667 7.16024C7.41667 6.43913 7.66695 5.82829 8.16751 5.32774C8.66806 4.82718 9.27889 4.5769 10 4.5769C10.7211 4.5769 11.332 4.82718 11.8325 5.32774C12.3331 5.82829 12.5833 6.43913 12.5833 7.16024C12.5833 7.88149 12.3331 8.49232 11.8325 8.99274C11.332 9.49329 10.7211 9.74357 10 9.74357ZM4.41667 14.3238V13.9038C4.41667 13.6485 4.49278 13.4025 4.64501 13.1659C4.79723 12.9292 5.01014 12.7243 5.28376 12.5513C6.01014 12.1336 6.77507 11.8134 7.57855 11.5907C8.38202 11.3679 9.18917 11.2565 10 11.2565C10.8108 11.2565 11.618 11.3679 12.4215 11.5907C13.2249 11.8134 13.9899 12.1336 14.7163 12.5513C14.9899 12.7104 15.2028 12.9118 15.355 13.1554C15.5072 13.3991 15.5833 13.6485 15.5833 13.9038V14.3238C15.5833 14.6335 15.4776 14.8942 15.266 15.1059C15.0545 15.3174 14.7938 15.4232 14.484 15.4232H5.51605C5.20619 15.4232 4.94549 15.3174 4.73396 15.1059C4.52244 14.8942 4.41667 14.6335 4.41667 14.3238Z" fill="white"/>
</g>
</svg>
