<svg width="20" height="20" viewBox="0 0 20 20" fill="none" xmlns="http://www.w3.org/2000/svg">
<mask id="mask0_6_613" style="mask-type:alpha" maskUnits="userSpaceOnUse" x="0" y="0" width="20" height="20">
<rect width="20" height="20" fill="#D9D9D9"/>
</mask>
<g mask="url(#mask0_6_613)">
<path d="M6.27563 16.5834H4.75646C4.39105 16.5834 4.07639 16.4515 3.81251 16.1876C3.54862 15.9237 3.41667 15.609 3.41667 15.2436V10.0001C3.41667 9.08619 3.59007 8.23022 3.93688 7.43216C4.28369 6.63397 4.75528 5.93793 5.35167 5.34404C5.94792 4.75001 6.64667 4.28029 7.44792 3.93487C8.24917 3.58946 9.1032 3.41675 10.01 3.41675C10.9168 3.41675 11.7694 3.58946 12.5677 3.93487C13.366 4.28029 14.0622 4.75001 14.656 5.34404C15.2501 5.93793 15.7198 6.63397 16.0652 7.43216C16.4106 8.23022 16.5833 9.08619 16.5833 10.0001V15.2436C16.5833 15.609 16.4538 15.9237 16.1948 16.1876C15.9358 16.4515 15.6187 16.5834 15.2435 16.5834H13.7244C13.3559 16.5834 13.0405 16.452 12.7781 16.1892C12.5158 15.9266 12.3846 15.6108 12.3846 15.2417V12.687C12.3846 12.3179 12.5158 12.0033 12.7781 11.743C13.0405 11.4827 13.3559 11.3526 13.7244 11.3526H15.5V10.0001C15.5 8.468 14.9668 7.16828 13.9004 6.10092C12.834 5.03369 11.5354 4.50008 10.0046 4.50008C8.47375 4.50008 7.17362 5.03369 6.10417 6.10092C5.03473 7.16828 4.50001 8.468 4.50001 10.0001V11.3526H6.27563C6.6441 11.3526 6.95952 11.484 7.22188 11.7467C7.48424 12.0095 7.61542 12.3254 7.61542 12.6942V15.2492C7.61542 15.6181 7.48424 15.9327 7.22188 16.193C6.95952 16.4533 6.6441 16.5834 6.27563 16.5834Z" fill="white"/>
</g>
</svg>
