<svg width="20" height="20" viewBox="0 0 20 20" fill="none" xmlns="http://www.w3.org/2000/svg">
<mask id="mask0_6_625" style="mask-type:alpha" maskUnits="userSpaceOnUse" x="0" y="0" width="20" height="20">
<rect width="20" height="20" fill="#D9D9D9"/>
</mask>
<g mask="url(#mask0_6_625)">
<path d="M8.20188 2.79159C8.04841 2.79159 7.9198 2.74006 7.81605 2.637C7.71216 2.53395 7.66021 2.40631 7.66021 2.25409C7.66021 2.10172 7.71216 1.9727 7.81605 1.867C7.9198 1.76117 8.04841 1.70825 8.20188 1.70825H11.7981C11.9516 1.70825 12.0802 1.75978 12.184 1.86283C12.2879 1.96589 12.3398 2.09353 12.3398 2.24575C12.3398 2.39811 12.2879 2.52714 12.184 2.63284C12.0802 2.73867 11.9516 2.79159 11.7981 2.79159H8.20188ZM9.99584 11.8605C10.1482 11.8605 10.2772 11.8086 10.3829 11.7047C10.4888 11.601 10.5417 11.4723 10.5417 11.3189V7.72263C10.5417 7.56915 10.4901 7.44054 10.3871 7.33679C10.284 7.2329 10.1564 7.18096 10.0042 7.18096C9.85181 7.18096 9.72278 7.2329 9.61709 7.33679C9.51125 7.44054 9.45834 7.56915 9.45834 7.72263V11.3189C9.45834 11.4723 9.50987 11.601 9.61292 11.7047C9.71598 11.8086 9.84362 11.8605 9.99584 11.8605ZM10 17.5833C9.08376 17.5833 8.2273 17.4112 7.43063 17.067C6.6341 16.723 5.93799 16.2532 5.3423 15.6576C4.74674 15.0619 4.27695 14.3658 3.93292 13.5693C3.58876 12.7726 3.41667 11.9162 3.41667 10.9999C3.41667 10.0837 3.58876 9.22721 3.93292 8.43054C4.27695 7.63402 4.74674 6.9379 5.3423 6.34221C5.93799 5.74665 6.6341 5.27686 7.43063 4.93284C8.2273 4.58867 9.0807 4.41659 9.99084 4.41659C10.7736 4.41659 11.5277 4.55471 12.2531 4.83096C12.9785 5.10707 13.6447 5.48818 14.2517 5.97429L14.836 5.38992C14.9474 5.27839 15.0697 5.22478 15.2027 5.22909C15.3358 5.23339 15.4626 5.29589 15.5833 5.41659C15.704 5.53728 15.7644 5.66284 15.7644 5.79325C15.7644 5.92353 15.704 6.04902 15.5833 6.16971L15.0256 6.74825C15.5117 7.34131 15.8929 8.00214 16.169 8.73075C16.4452 9.45936 16.5833 10.2167 16.5833 11.0028C16.5833 11.9171 16.4113 12.7726 16.0671 13.5693C15.7231 14.3658 15.2533 15.0619 14.6577 15.6576C14.062 16.2532 13.3659 16.723 12.5694 17.067C11.7727 17.4112 10.9163 17.5833 10 17.5833Z" fill="white"/>
</g>
</svg>
